<svg xmlns="http://www.w3.org/2000/svg" xmlns:xlink="http://www.w3.org/1999/xlink" width="870.5" height="977.5" viewBox="0 0 870.5 977.5"><defs><style>.a{fill:#f5f9e7;}.b{fill:#3bab59;stroke:#fff;}.c{fill:#bbd54b;font-size:25px;font-family:HelveticaNeue-Bold, Helvetica Neue;font-weight:700;}.d{font-size:20px;}.d,.j{font-family:Muli-SemiBold, Muli;font-weight:600;}.e{fill:#bcd54d;}.f{fill:#4dd5c5;}.g{fill:#f086dc;}.h{fill:#f8ef7b;}.i{fill:#ff9898;}.j{fill:#9cbc12;font-size:15px;}.k,.l,.n{fill:none;}.k{stroke:#707070;}.l{stroke:#000;stroke-linecap:round;}.m{stroke:none;}.o{filter:url(#m);}.p{filter:url(#k);}.q{filter:url(#i);}.r{filter:url(#g);}.s{filter:url(#e);}.t{filter:url(#c);}.u{filter:url(#a);}</style><filter id="a" x="0" y="0" width="120" height="120" filterUnits="userSpaceOnUse"><feOffset dy="3" input="SourceAlpha"/><feGaussianBlur stdDeviation="7.5" result="b"/><feFlood flood-opacity="0.161"/><feComposite operator="in" in2="b"/><feComposite in="SourceGraphic"/></filter><filter id="c" x="377" y="313" width="120" height="120" filterUnits="userSpaceOnUse"><feOffset dy="3" input="SourceAlpha"/><feGaussianBlur stdDeviation="7.5" result="d"/><feFlood flood-opacity="0.161"/><feComposite operator="in" in2="d"/><feComposite in="SourceGraphic"/></filter><filter id="e" x="0" y="747" width="120" height="120" filterUnits="userSpaceOnUse"><feOffset dy="3" input="SourceAlpha"/><feGaussianBlur stdDeviation="7.5" result="f"/><feFlood flood-opacity="0.161"/><feComposite operator="in" in2="f"/><feComposite in="SourceGraphic"/></filter><filter id="g" x="338" y="0" width="120" height="120" filterUnits="userSpaceOnUse"><feOffset dy="3" input="SourceAlpha"/><feGaussianBlur stdDeviation="7.5" result="h"/><feFlood flood-opacity="0.161"/><feComposite operator="in" in2="h"/><feComposite in="SourceGraphic"/></filter><filter id="i" x="338" y="747" width="120" height="120" filterUnits="userSpaceOnUse"><feOffset dy="3" input="SourceAlpha"/><feGaussianBlur stdDeviation="7.5" result="j"/><feFlood flood-opacity="0.161"/><feComposite operator="in" in2="j"/><feComposite in="SourceGraphic"/></filter><filter id="k" x="675" y="0" width="120" height="120" filterUnits="userSpaceOnUse"><feOffset dy="3" input="SourceAlpha"/><feGaussianBlur stdDeviation="7.5" result="l"/><feFlood flood-opacity="0.161"/><feComposite operator="in" in2="l"/><feComposite in="SourceGraphic"/></filter><filter id="m" x="675" y="747" width="120" height="120" filterUnits="userSpaceOnUse"><feOffset dy="3" input="SourceAlpha"/><feGaussianBlur stdDeviation="7.5" result="n"/><feFlood flood-opacity="0.161"/><feComposite operator="in" in2="n"/><feComposite in="SourceGraphic"/></filter></defs><g transform="translate(-523.5 -2315.5)"><rect class="a" width="868" height="174" transform="translate(526 2685)"/><rect class="a" width="193" height="174" transform="translate(526 2372)"/><rect class="a" width="193" height="174" transform="translate(526 3119)"/><rect class="a" width="193" height="174" transform="translate(864 2372)"/><rect class="a" width="193" height="174" transform="translate(864 3119)"/><rect class="a" width="193" height="174" transform="translate(1201 2372)"/><rect class="a" width="193" height="174" transform="translate(1201 3119)"/><g transform="translate(-3766 -386)"><g class="u" transform="matrix(1, 0, 0, 1, 4289.5, 2701.5)"><g class="b" transform="translate(22.5 19.5)"><circle class="m" cx="37.5" cy="37.5" r="37.5"/><circle class="n" cx="37.5" cy="37.5" r="37"/></g></g><text class="c" transform="translate(4341 2741)"><tspan x="0" y="24">1</tspan></text></g><g transform="translate(-3389 -73)"><g class="t" transform="matrix(1, 0, 0, 1, 3912.5, 2388.5)"><g class="b" transform="translate(399.5 332.5)"><circle class="m" cx="37.5" cy="37.5" r="37.5"/><circle class="n" cx="37.5" cy="37.5" r="37"/></g></g><text class="c" transform="translate(4341 2741)"><tspan x="0" y="24">4</tspan></text></g><g transform="translate(-3766 361)"><g class="s" transform="matrix(1, 0, 0, 1, 4289.5, 1954.5)"><g class="b" transform="translate(22.5 766.5)"><circle class="m" cx="37.5" cy="37.5" r="37.5"/><circle class="n" cx="37.5" cy="37.5" r="37"/></g></g><text class="c" transform="translate(4341 2741)"><tspan x="0" y="24">5</tspan></text></g><g transform="translate(-3428 -386)"><g class="r" transform="matrix(1, 0, 0, 1, 3951.5, 2701.5)"><g class="b" transform="translate(360.5 19.5)"><circle class="m" cx="37.5" cy="37.5" r="37.5"/><circle class="n" cx="37.5" cy="37.5" r="37"/></g></g><text class="c" transform="translate(4341 2741)"><tspan x="0" y="24">2</tspan></text></g><g transform="translate(-3428 361)"><g class="q" transform="matrix(1, 0, 0, 1, 3951.5, 1954.5)"><g class="b" transform="translate(360.5 766.5)"><circle class="m" cx="37.5" cy="37.5" r="37.5"/><circle class="n" cx="37.5" cy="37.5" r="37"/></g></g><text class="c" transform="translate(4341 2741)"><tspan x="0" y="24">6</tspan></text></g><g transform="translate(-3091 -386)"><g class="p" transform="matrix(1, 0, 0, 1, 3614.5, 2701.5)"><g class="b" transform="translate(697.5 19.5)"><circle class="m" cx="37.5" cy="37.5" r="37.5"/><circle class="n" cx="37.5" cy="37.5" r="37"/></g></g><text class="c" transform="translate(4341 2741)"><tspan x="0" y="24">3</tspan></text></g><g transform="translate(-3091 361)"><g class="o" transform="matrix(1, 0, 0, 1, 3614.5, 1954.5)"><g class="b" transform="translate(697.5 766.5)"><circle class="m" cx="37.5" cy="37.5" r="37.5"/><circle class="n" cx="37.5" cy="37.5" r="37"/></g></g><text class="c" transform="translate(4341 2741)"><tspan x="0" y="24">7</tspan></text></g><text class="d" transform="translate(559 2440)"><tspan x="0" y="20">Gather </tspan><tspan x="0" y="45">requirements</tspan></text><rect class="e" width="141" height="84" transform="translate(576 2838)"/><rect class="f" width="141" height="84" transform="translate(730 2838)"/><rect class="g" width="142" height="84" transform="translate(882 2838)"/><rect class="h" width="142" height="84" transform="translate(1036 2838)"/><rect class="i" width="142" height="84" transform="translate(1190 2838)"/><text class="d" transform="translate(607 2868)"><tspan x="19.42" y="20">Plan</tspan></text><text class="d" transform="translate(761 2868)"><tspan x="7.99" y="20">Design</tspan></text><text class="d" transform="translate(913 2868)"><tspan x="2.44" y="20">Develop</tspan></text><text class="d" transform="translate(1067 2868)"><tspan x="21.16" y="20">Test</tspan></text><text class="d" transform="translate(1221 2868)"><tspan x="1.68" y="20">Validate</tspan></text><text class="d" transform="translate(701 2753)"><tspan x="154.9" y="20">Agile system life-cycle</tspan></text><text class="d" transform="translate(559 3187)"><tspan x="0" y="20">Release</tspan><tspan x="0" y="45">product</tspan></text><text class="d" transform="translate(897 2440)"><tspan x="0" y="20">Documentation </tspan><tspan x="0" y="45">and pricing</tspan></text><text class="d" transform="translate(897 3187)"><tspan x="0" y="20">Product </tspan><tspan x="0" y="45">marketing</tspan></text><text class="d" transform="translate(1234 2440)"><tspan x="0" y="20">Project </tspan><tspan x="0" y="45">roadmap setup</tspan></text><text class="d" transform="translate(1234 3187)"><tspan x="0" y="20">Feedback &amp; </tspan><tspan x="0" y="45">iterations</tspan></text><text class="j" transform="translate(559 2505)"><tspan x="0" y="15">STEP 1</tspan></text><text class="j" transform="translate(920 2795)"><tspan x="14.92" y="15">STEP 4</tspan></text><text class="j" transform="translate(559 3252)"><tspan x="0" y="15">STEP 5</tspan></text><text class="j" transform="translate(897 2505)"><tspan x="0" y="15">STEP 2</tspan></text><text class="j" transform="translate(897 3252)"><tspan x="0" y="15">STEP 6</tspan></text><text class="j" transform="translate(1234 2505)"><tspan x="0" y="15">STEP 3</tspan></text><text class="j" transform="translate(1234 3252)"><tspan x="0" y="15">STEP 7</tspan></text><line class="k" x2="141" transform="translate(719.5 2513.5)"/><line class="k" x2="142" transform="translate(1057.5 2513.5)"/><line class="k" y2="53" transform="translate(1297.5 2546.5)"/><line class="k" y1="53" transform="translate(583.5 3025.5)"/><line class="k" y2="53" transform="translate(1267.5 2923.5)"/><line class="k" y2="53" transform="translate(639.5 2923.5)"/><line class="k" x1="338" transform="translate(959.5 2599.5)"/><line class="k" x2="377" y2="1" transform="translate(583.5 3025.5)"/><line class="k" x1="628" transform="translate(639.5 2976.5)"/><line class="k" y2="47" transform="translate(959.5 2599.5)"/><line class="k" y2="49" transform="translate(959.5 2976.5)"/><path class="l" d="M9,13.5l3,3,3-3" transform="translate(844 2525.5) rotate(-90)"/><path class="l" d="M9,13.5l3,3,3-3" transform="translate(1183 2525.5) rotate(-90)"/><path class="l" d="M9,13.5l3,3,3-3" transform="translate(948 2629.5)"/><path class="l" d="M9,13.5l3,3,3-3" transform="translate(571.5 3062.5)"/><line class="k" x2="141" transform="translate(719.5 3260.5)"/><path class="l" d="M9,13.5l3,3,3-3" transform="translate(844 3272.5) rotate(-90)"/><line class="k" x2="141" transform="translate(1056.5 3260.5)"/><path class="l" d="M9,13.5l3,3,3-3" transform="translate(1181 3272.5) rotate(-90)"/></g></svg>